<?xml version="1.0" standalone="no"?>
<!DOCTYPE svg PUBLIC "-//W3C//DTD SVG 20010904//EN"
 "http://www.w3.org/TR/2001/REC-SVG-20010904/DTD/svg10.dtd">
<svg version="1.0" xmlns="http://www.w3.org/2000/svg"
 width="260.000000pt" height="260.000000pt" viewBox="0 0 260.000000 260.000000"
 preserveAspectRatio="xMidYMid meet">
<metadata>
Created by potrace 1.11, written by Peter Selinger 2001-2013
</metadata>
<g transform="translate(0.000000,260.000000) scale(0.100000,-0.100000)"
fill="#000000" stroke="none">
<path d="M1207 2493 c-14 -230 -29 -717 -25 -828 4 -150 4 -547 0 -720 -6
-214 24 -925 38 -925 8 0 10 24 29 400 13 238 15 380 15 890 0 495 -2 639 -14
875 -17 341 -22 405 -30 405 -4 0 -10 -44 -13 -97z"/>
<path d="M1345 2483 c-4 -60 -9 -117 -11 -128 -21 -104 -25 -1788 -4 -2035 6
-74 13 -172 17 -217 3 -46 9 -83 13 -83 3 0 12 105 20 233 28 491 12 2337 -21
2337 -3 0 -10 -48 -14 -107z"/>
<path d="M1489 2528 c-4 -24 -23 -690 -22 -818 2 -225 2 -588 0 -810 -1 -127
17 -783 22 -807 1 -2 5 -3 10 -3 8 0 24 540 24 818 0 130 0 424 0 800 0 288
-16 822 -24 822 -5 0 -9 -1 -10 -2z"/>
<path d="M1067 2218 c-3 -167 -11 -350 -17 -407 -9 -77 -9 -131 -1 -210 14
-134 14 -455 0 -592 -7 -75 -7 -134 1 -205 6 -54 13 -237 17 -406 3 -170 10
-308 15 -308 4 0 8 19 8 43 1 23 6 173 12 332 6 160 11 354 10 433 0 78 -1
261 -1 407 0 146 1 329 1 408 1 78 -4 273 -10 432 -6 160 -11 309 -12 333 0
23 -4 42 -8 42 -5 0 -12 -136 -15 -302z"/>
<path d="M1615 1988 c-4 -106 -8 -251 -8 -323 1 -164 0 -573 0 -725 0 -168 15
-500 23 -500 4 0 10 66 14 147 3 82 11 186 18 233 7 57 8 134 2 235 -11 187
-11 308 0 505 5 102 5 181 -2 230 -6 41 -14 146 -18 233 -4 86 -10 157 -14
157 -4 0 -11 -87 -15 -192z"/>
<path d="M937 2120 c-27 -71 -26 -1575 2 -1628 13 -24 36 360 31 518 -5 164
-5 317 -1 620 3 179 -19 522 -32 490z"/>
<path d="M1754 1868 c-18 -274 -7 -1238 15 -1238 28 0 52 808 31 1055 -6 77
-14 177 -17 223 -3 45 -9 82 -13 82 -4 0 -11 -55 -16 -122z"/>
<path d="M795 1903 c-3 -43 -9 -96 -12 -118 -3 -22 -7 -200 -10 -395 -4 -272
-1 -399 11 -545 9 -105 16 -197 16 -204 0 -7 4 -10 8 -7 35 22 36 1346 1 1346
-4 0 -10 -35 -14 -77z"/>
<path d="M658 1853 c-1 -27 -3 -66 -6 -88 -6 -51 -6 -857 0 -910 3 -22 5 -61
6 -87 1 -27 6 -48 10 -48 14 0 26 282 26 590 0 308 -12 590 -26 590 -4 0 -9
-21 -10 -47z"/>
<path d="M1897 1793 c-3 -60 -11 -180 -17 -268 -10 -140 -7 -454 6 -519 2 -11
7 -80 10 -153 4 -73 10 -133 14 -133 4 0 13 106 20 237 16 298 3 943 -20 943
-4 0 -10 -48 -13 -107z"/>
<path d="M2035 1573 c-8 -191 0 -701 10 -711 3 -3 8 -2 11 1 12 11 8 887 -3
898 -8 8 -13 -51 -18 -188z"/>
<path d="M515 1534 c-8 -234 2 -664 15 -664 12 0 21 434 14 668 -4 122 -10
222 -14 222 -4 0 -11 -102 -15 -226z"/>
<path d="M2180 1309 c0 -104 3 -158 10 -154 6 4 10 68 10 161 0 96 -4 154 -10
154 -6 0 -10 -60 -10 -161z"/>
<path d="M380 1315 c0 -77 4 -125 10 -125 6 0 10 48 10 125 0 77 -4 125 -10
125 -6 0 -10 -48 -10 -125z"/>
</g>
</svg>
